# xmcd
#
# Track frame offsets: 
#        150
#        27540
#        56967
#        90264
#        118105
#        148489
#        178770
#        213165
#        241098
#        266543
#
# Disc length: 3772 seconds
#
# Revision: 1
# Processed by: cddbd v1.5.1PL0 Copyright (c) Steve Scherf et al.
# Submitted via: ExactAudioCopy v0.95a5
#
DISCID=920eba0a
DTITLE=Karek Ruzicka jr - Brooklyn Moods
DYEAR=2004
DGENRE=Jazz
TTITLE0=One for George (Karel Ruzicka jr)
TTITLE1=Jennifer Susanne (Karel Ruzicka jr)
TTITLE2=Pronto (Karel Ruzicka jr)
TTITLE3=Reflection (Bruce Barth)
TTITLE4=Another Time (Karel Ruzicka jr)
TTITLE5=One Coffee to Go (Karel Ruzicka jr)
TTITLE6=Brooklyn Moods (Karel Ruzicka jr)
TTITLE7=Strange Blues (George Mraz)
TTITLE8=Dressed to Chill (Karel Ruzicka jr)
TTITLE9=Bye Bya Baby (Jule Styne)
EXTD=YEAR: 2004
EXTT0=
EXTT1=
EXTT2=
EXTT3=
EXTT4=
EXTT5=
EXTT6=
EXTT7=
EXTT8=
EXTT9=
PLAYORDER=
